<?xml version="1.0" encoding="UTF-8" standalone="no"?>
<!-- Created with Inkscape (http://www.inkscape.org/) -->

<svg
   width="16mm"
   height="18.329857mm"
   viewBox="0 0 16 18.329857"
   version="1.1"
   id="svg5"
   inkscape:version="1.1 (c68e22c387, 2021-05-23)"
   sodipodi:docname="gitemail_logo.svg"
   xmlns:inkscape="http://www.inkscape.org/namespaces/inkscape"
   xmlns:sodipodi="http://sodipodi.sourceforge.net/DTD/sodipodi-0.dtd"
   xmlns="http://www.w3.org/2000/svg"
   xmlns:svg="http://www.w3.org/2000/svg"
   xmlns:rdf="http://www.w3.org/1999/02/22-rdf-syntax-ns#"
   xmlns:cc="http://creativecommons.org/ns#"
   xmlns:dc="http://purl.org/dc/elements/1.1/">
  <title
     id="title16545">gitemail_logo</title>
  <sodipodi:namedview
     id="namedview7"
     pagecolor="#ffffff"
     bordercolor="#666666"
     borderopacity="1.0"
     inkscape:pageshadow="2"
     inkscape:pageopacity="0.0"
     inkscape:pagecheckerboard="0"
     inkscape:document-units="mm"
     showgrid="false"
     fit-margin-top="0"
     fit-margin-left="0"
     fit-margin-right="0"
     fit-margin-bottom="0"
     inkscape:zoom="12.443434"
     inkscape:cx="43.999107"
     inkscape:cy="41.507833"
     inkscape:window-width="2560"
     inkscape:window-height="1377"
     inkscape:window-x="-8"
     inkscape:window-y="-8"
     inkscape:window-maximized="1"
     inkscape:current-layer="layer1" />
  <defs
     id="defs2">
    <inkscape:path-effect
       effect="bspline"
       id="path-effect16541"
       is_visible="true"
       lpeversion="1"
       weight="33.333333"
       steps="2"
       helper_size="0"
       apply_no_weight="true"
       apply_with_weight="true"
       only_selected="false" />
    <inkscape:path-effect
       effect="bspline"
       id="path-effect16537"
       is_visible="true"
       lpeversion="1"
       weight="33.333333"
       steps="2"
       helper_size="0"
       apply_no_weight="true"
       apply_with_weight="true"
       only_selected="false" />
    <inkscape:path-effect
       effect="bspline"
       id="path-effect16533"
       is_visible="true"
       lpeversion="1"
       weight="33.333333"
       steps="2"
       helper_size="0"
       apply_no_weight="true"
       apply_with_weight="true"
       only_selected="false" />
    <inkscape:path-effect
       effect="bspline"
       id="path-effect16416"
       is_visible="true"
       lpeversion="1"
       weight="33.333333"
       steps="2"
       helper_size="0"
       apply_no_weight="true"
       apply_with_weight="true"
       only_selected="false" />
    <rect
       x="284.16592"
       y="389.60306"
       width="259.73538"
       height="213.44591"
       id="rect3686" />
  </defs>
  <g
     inkscape:label="Layer 1"
     inkscape:groupmode="layer"
     id="layer1"
     transform="translate(4.9221789e-6,0.34521682)">
    <text
       xml:space="preserve"
       transform="matrix(0.46457607,0,0,0.48250905,-133.02022,-191.35074)"
       id="text3684"
       style="font-style:normal;font-weight:normal;font-size:40px;line-height:1.25;font-family:sans-serif;white-space:pre;shape-inside:url(#rect3686);fill:#000000;fill-opacity:1;stroke:none"><tspan
         x="284.16602"
         y="426.48757"
         id="tspan14188"><tspan
           style="font-family:Alata;-inkscape-font-specification:Alata"
           id="tspan14186">@</tspan></tspan></text>
    <path
       style="fill:none;stroke:#000000;stroke-width:0.865;stroke-linecap:butt;stroke-linejoin:miter;stroke-miterlimit:4;stroke-dasharray:none;stroke-opacity:1"
       d="M 3.4280099,4.3301179 C 3.4480531,2.887006 3.4681,1.4436335 3.4881505,0"
       id="path16414"
       inkscape:path-effect="#path-effect16416"
       inkscape:original-d="M 3.4280099,4.3301179 C 3.4483214,2.8870097 3.4683681,1.4436372 3.4881505,0" />
    <path
       style="fill:none;stroke:#000000;stroke-width:0.865;stroke-linecap:butt;stroke-linejoin:miter;stroke-miterlimit:4;stroke-dasharray:none;stroke-opacity:1"
       d="m 3.4881505,0 c 1.0026118,0.96250744 2.0049539,1.9247559 3.007026,2.8867452"
       id="path16531"
       inkscape:path-effect="#path-effect16533"
       inkscape:original-d="M 3.4881505,0 C 4.490757,0.96251299 5.4930992,1.9247614 6.4951765,2.8867452" />
    <path
       style="fill:none;stroke:#000000;stroke-width:0.765;stroke-linecap:butt;stroke-linejoin:miter;stroke-miterlimit:4;stroke-dasharray:none;stroke-opacity:1"
       d="m 14.012742,3.7287125 c 0,-1.2426396 0,-2.4855438 0,-3.7287125"
       id="path16535"
       inkscape:path-effect="#path-effect16537"
       inkscape:original-d="m 14.012742,3.7287125 c 2.65e-4,-1.2426396 2.65e-4,-2.4855438 0,-3.7287125" />
    <path
       style="fill:none;stroke:#000000;stroke-width:0.865;stroke-linecap:butt;stroke-linejoin:miter;stroke-miterlimit:4;stroke-dasharray:none;stroke-opacity:1"
       d="M 10.825294,2.405621 C 11.887818,1.6037162 12.950301,0.80184241 14.012742,0"
       id="path16539"
       inkscape:path-effect="#path-effect16541"
       inkscape:original-d="M 10.825294,2.405621 C 11.888041,1.6040119 12.950524,0.80213823 14.012742,0" />
    <path
       style="fill:#8b949e;fill-opacity:1;fill-rule:evenodd;stroke:#8b949e;stroke-width:0.262732;stroke-opacity:1"
       d="M 26.330678,69.192113 C 19.649036,68.773072 14.28286,66.938781 9.65683,63.49258 8.3262681,62.501367 6.1583368,60.341047 5.1756301,59.027113 0.93983901,53.363624 -0.72146645,46.113728 0.32393096,37.854417 1.3010129,30.134843 4.6776021,23.608158 10.516225,18.153503 l 0.826494,-0.772142 0.112348,-7.5454976 c 0.06179,-4.1500245 0.113462,-7.7715217 0.114824,-8.0477718 l 0.0025,-0.5022729 h 0.821837 0.821839 L 13.780502,0.7295285 14.344937,0.17323835 18.56403,4.2307334 c 2.320501,2.2316222 4.694964,4.5084834 5.276584,5.0596921 l 1.057493,1.0021965 0.951599,-0.237696 C 27.805527,9.5663831 30.007364,9.1979977 32.22583,8.9881432 33.44677,8.8726494 37.726999,8.8461101 39.140997,8.945266 l 0.928075,0.065081 5.917962,-4.4649918 c 3.25488,-2.4557452 5.947321,-4.46421156 5.983201,-4.46325838 0.03588,9.5318e-4 0.209893,0.2040184 0.386693,0.45125604 0.602415,0.84241854 0.58673,0.83282954 1.362345,0.83282954 h 0.686929 v 7.0403209 7.0403217 l 0.575029,0.614317 c 2.090006,2.232807 3.857114,5.553176 4.689178,8.810895 1.056419,4.136123 1.028186,8.739296 -0.0804,13.108752 -1.200585,4.732066 -3.777077,9.070167 -7.070387,11.904581 -2.39576,2.06193 -4.764753,3.307626 -7.525251,3.957027 -1.598363,0.376012 -3.688974,0.545819 -4.973265,0.403947 -2.72775,-0.301327 -4.153556,-1.642609 -4.603638,-4.33073 l -0.09861,-0.588975 -0.279642,0.390054 c -0.728825,1.016583 -2.121755,2.250349 -3.258159,2.885863 -2.597739,1.452738 -6.033537,1.867384 -8.977361,1.083423 -3.375364,-0.898882 -6.048662,-3.493637 -7.206417,-6.994689 -0.573812,-1.735206 -0.771595,-3.377368 -0.705582,-5.858301 0.06347,-2.385375 0.306688,-3.839032 0.980297,-5.859039 1.20589,-3.616211 3.575172,-6.683898 6.635198,-8.591094 1.342451,-0.836699 3.169703,-1.610311 4.624949,-1.958088 2.252758,-0.538367 5.284221,-0.532721 7.132612,0.01328 1.156408,0.341597 2.278877,1.074684 3.037193,1.983599 0.174201,0.208797 0.485104,0.716775 0.690894,1.128839 l 0.374164,0.749207 0.430406,-1.91448 c 0.236723,-1.052965 0.445026,-1.959685 0.462894,-2.014935 0.04087,-0.126387 6.54699,-0.148904 6.54699,-0.02266 0,0.04279 -0.978442,4.51804 -2.174317,9.945004 -1.195874,5.426964 -2.248717,10.301171 -2.339651,10.831571 -0.283407,1.653062 -0.120982,2.735667 0.473874,3.158477 0.346713,0.246436 0.796018,0.336408 1.682387,0.336894 3.074559,0.0017 5.666892,-1.634986 8.08209,-5.102644 1.675022,-2.404939 2.956782,-5.781694 3.492788,-9.20164 0.179484,-1.145177 0.200599,-4.438177 0.03607,-5.625456 C 54.26141,22.923086 51.335476,18.476293 46.69129,15.970368 43.380309,14.183817 38.427617,13.291205 33.409719,13.576661 c -0.894239,0.05087 -2.059853,0.147262 -2.590253,0.214201 -9.800403,1.236869 -18.251338,6.992348 -22.4528136,15.291411 -1.9514026,3.854553 -2.9039299,8.037065 -2.901094,12.738595 0.00504,8.350151 3.1092576,14.77844 8.9999016,18.637191 4.838331,3.169419 11.841682,4.447829 19.206916,3.50608 3.13175,-0.400439 6.013277,-1.203794 8.748946,-2.439162 0.458219,-0.206921 0.840629,-0.365381 0.849802,-0.352133 0.09621,0.138966 1.982499,4.421816 1.958195,4.44612 -0.140179,0.140179 -2.661768,1.140321 -4.002758,1.587621 -2.922878,0.974953 -5.728167,1.569633 -8.799822,1.865431 -1.593811,0.153484 -4.614748,0.212999 -6.096061,0.120097 z m 3.439118,-21.251677 c 1.339097,-0.3645 2.098617,-0.815405 3.187038,-1.892055 1.553714,-1.536913 2.476334,-3.228649 3.131284,-5.741595 0.352507,-1.352515 0.489307,-2.423445 0.49331,-3.861863 0.0068,-2.457604 -0.488421,-4.00644 -1.687597,-5.277629 -1.001946,-1.062116 -2.283649,-1.488484 -4.235092,-1.408835 -1.27607,0.05208 -2.125116,0.251343 -3.160153,0.741645 -0.944071,0.44721 -1.685596,0.992781 -2.441273,1.796146 -1.867165,1.984997 -2.890787,4.527493 -3.119539,7.748379 -0.315493,4.442244 1.36543,7.343983 4.622418,7.979571 0.730918,0.142636 2.552507,0.0951 3.209604,-0.08376 z M 16.951986,13.541717 c 0.967627,-0.540523 2.606344,-1.327533 3.681385,-1.768019 0.40885,-0.167522 0.740122,-0.326558 0.73616,-0.353412 -0.01173,-0.07951 -6.452832,-6.2209292 -6.562526,-6.2571945 -0.07826,-0.025873 -0.100478,0.345576 -0.100564,1.6812141 -6e-5,0.9429336 -0.02406,3.1544686 -0.05334,4.9145214 l -0.05323,3.200097 0.756521,-0.474248 c 0.416086,-0.260836 1.134102,-0.685167 1.595591,-0.942959 z m 34.542335,-6.9313388 -0.02139,-2.1606057 -3.4809,2.6302717 c -1.914495,1.4466493 -3.480381,2.6573271 -3.479748,2.6903935 6.43e-4,0.033067 0.427883,0.1922339 0.949444,0.3537023 1.797589,0.556512 3.696358,1.425286 5.254258,2.404064 l 0.756946,0.475565 0.02139,-2.116393 c 0.01177,-1.1640153 0.01177,-3.0886647 0,-4.2769978 z"
       id="path10095"
       transform="matrix(0.26458333,0,0,0.26458333,-4.9221789e-6,-0.34521682)" />
  </g>
  <metadata
     id="metadata16543">
    <rdf:RDF>
      <cc:Work
         rdf:about="">
        <dc:title>gitemail_logo</dc:title>
      </cc:Work>
    </rdf:RDF>
  </metadata>
</svg>
